<?xml version="1.0" encoding="UTF-8"?>
<svg width="176px" height="53px" viewBox="0 0 176 53" version="1.1" xmlns="http://www.w3.org/2000/svg" xmlns:xlink="http://www.w3.org/1999/xlink">
    <!-- Generator: Sketch 49.1 (51147) - http://www.bohemiancoding.com/sketch -->
    <title>fergus_outline_horizontal_text copy 2</title>
    <desc>Created with Sketch.</desc>
    <defs></defs>
    <g id="Marketo" stroke="none" stroke-width="1" fill="none" fill-rule="evenodd">
        <g id="Landing-Page" transform="translate(-215.000000, -5905.000000)" fill="#FFFFFF" fill-rule="nonzero">
            <g id="fergus_outline_horizontal_text-copy-2" transform="translate(215.000000, 5905.000000)">
                <g id="logo_outline">
                    <path d="M39.6235294,1.11199501 C39.6235294,1.11199501 39.663774,1.11199501 39.7040185,1.06550379 C39.9857303,0.833047647 40.4284202,0.461117822 39.6235294,1.11199501 Z" id="Shape"></path>
                    <path d="M42.7764706,2.85384615 L42.6352941,2.39819005 C42.1882353,1.00723982 41.4823529,0.599547511 40.9647059,0.50361991 C40.5176471,0.431674208 39.8588235,0.791402715 39.6705882,0.911312217 C39.6235294,0.959276018 39.5764706,0.983257919 39.5529412,0.983257919 L35.4352941,4.74841629 C35.2705882,4.89230769 34.7764706,5.2520362 34.1882353,5.2520362 C33.8823529,5.2520362 33.6,5.1561086 33.2941176,4.96425339 L33.2470588,4.94027149 L33.2,4.91628959 L33.0823529,4.86832579 C31.4823529,3.71719457 29.6470588,2.94977376 27.7411765,2.66199095 C27.8352941,2.32624434 27.7411765,2.06244344 27.6470588,1.94253394 C27.4823529,1.65475113 27.2,1.51085973 26.8705882,1.51085973 C26.5882353,1.51085973 26.3058824,1.63076923 25.8588235,1.89457014 C25.9058824,1.65475113 25.9058824,1.46289593 25.8823529,1.29502262 L25.9058824,1.12714932 L25.8588235,1.15113122 C25.8352941,1.05520362 25.7647059,0.935294118 25.6941176,0.839366516 L25.4352941,0.50361991 L24.9882353,0.479638009 C24.4705882,0.479638009 24.1647059,0.911312217 23.9529412,1.22307692 L23.9294118,1.24705882 L23.8823529,1.29502262 C23.7411765,1.46289593 23.6235294,1.63076923 23.4823529,1.79864253 C23.1529412,2.23031674 22.7764706,2.73393665 22.4470588,2.94977376 C21.6941176,3.38144796 20.6117647,3.86108597 19.8823529,3.86108597 C19.4588235,3.86108597 19.3647059,3.69321267 19.2941176,3.57330317 C19.0352941,2.68597285 18.8941176,1.63076923 18.8470588,1.22307692 C18.7294118,0.311764706 18.1647059,0 17.6941176,0 C17.4588235,0 17.2235294,0.0719457014 16.9882353,0.215837104 L16.9411765,0.239819005 L16.8941176,0.287782805 C15.9294118,1.07918552 15.2705882,2.23031674 14.8470588,3.16561086 L14.3294118,2.51809955 L14.2823529,2.47013575 L14.2352941,2.42217195 C12.7294118,1.03122172 10.9647059,0.263800905 10,0.239819005 L9.97647059,0.239819005 C9.62352941,0.239819005 8.72941176,0.287782805 8.49411765,0.863348416 C8.37647059,1.15113122 8.32941176,1.58280543 8.51764706,1.87058824 C8.70588235,2.15837104 8.77647059,2.23031674 8.98823529,2.39819005 C12.0941176,5.89954751 13.8588235,13.5497738 13.9294118,23.9579186 L13.9294118,24.0298643 L13.9294118,24.0778281 C13.9529412,24.6054299 14.1647059,25.0131222 14.4705882,25.3488688 C14.0470588,25.3728507 13.6235294,25.5886878 13.2941176,25.9723982 L13.2235294,26.0683258 L13.1764706,26.0923077 L13.1529412,26.1162896 C13.0352941,26.2361991 12.9882353,26.4040724 12.9647059,26.5239819 C12.4,27.6031674 7.92941176,35.9728507 5.83529412,39.6420814 C4.61176471,41.680543 4.23529412,44.0547511 4.16470588,45.9013575 L4.11764706,45.8773756 L4.14117647,46.8846154 C4.07058824,46.8606335 4.02352941,46.8366516 3.97647059,46.7886878 C3.64705882,46.5728507 3.36470588,46.2850679 3.12941176,45.9253394 C2.65882353,45.1579186 2.54117647,44.2945701 2.54117647,44.2705882 C2.49411765,43.6710407 2.11764706,42.7597285 1.29411765,42.7597285 C0.658823529,42.7597285 -7.99360578e-15,43.2633484 -7.99360578e-15,44.3665158 C-7.99360578e-15,48.5153846 1.38823529,50.60181 2.54117647,51.6090498 C3.92941176,52.8081448 5.41176471,52.9760181 6.16470588,52.9760181 C6.28235294,52.9760181 6.35294118,52.9760181 6.42352941,52.9760181 L18.8470588,52.9760181 L18.8941176,52.9760181 L18.9411765,52.9760181 C19.1058824,52.9520362 19.2470588,52.9280543 19.3647059,52.8561086 L19.3647059,52.9760181 L20.2117647,52.9760181 L30.3294118,52.9760181 L30.3529412,52.9760181 L30.3764706,52.9760181 C30.5176471,52.9760181 30.6588235,52.9280543 30.7764706,52.8800905 L30.7764706,52.9520362 L31.6,52.9760181 L35.9294118,52.9760181 C36.6117647,52.9760181 37.1529412,52.4484163 37.2,51.7529412 L37.2,51.5850679 C37.2,50.8895928 36.9882353,50.2660633 36.5882353,49.7624434 C36.2823529,49.4027149 35.8823529,49.0909502 35.4117647,48.8751131 C35.2705882,48.8271493 35.1529412,48.7552036 35.0117647,48.7072398 C34.5176471,44.1746606 33.5294118,39.8819005 32.0705882,35.9488688 L30.0470588,30.1932127 C30,29.7375566 29.7411765,29.3538462 29.3647059,29.0900452 C29.8352941,28.9461538 30.2352941,28.6343891 30.4941176,28.1547511 L30.5176471,28.1307692 L30.5411765,28.0828054 L30.6117647,27.9149321 C30.6352941,27.8669683 30.6588235,27.7950226 30.6823529,27.7470588 C31.5764706,25.9244344 32.6823529,24.9891403 33.5294118,24.3895928 L33.5529412,24.3656109 L33.5764706,24.341629 C33.6235294,24.3176471 33.6705882,24.2696833 33.7176471,24.2457014 L33.9058824,24.1257919 L33.9058824,24.10181 C34.0705882,24.0058824 34.1882353,23.9099548 34.3058824,23.838009 L34.4235294,23.7660633 C36.2588235,22.5190045 37.7176471,20.9361991 38.6352941,19.8330317 C38.8235294,19.5932127 38.9882353,19.3773756 39.1529412,19.1615385 C39.5294118,18.6339367 39.4117647,18.2262443 39.3176471,18.0104072 C39.3176471,18.0104072 39.3176471,17.9864253 39.2941176,17.9864253 C39.4823529,17.8904977 39.6705882,17.818552 39.8588235,17.6986425 L39.8823529,17.6746606 L39.9058824,17.6506787 C40.1647059,17.4588235 40.5882353,17.099095 40.9882353,16.4515837 C45.0588235,9.90452489 43.7411765,5.82760181 42.7764706,2.85384615 Z M31.2941176,36.3085973 C32.6117647,39.8819005 33.7411765,44.2226244 34.2352941,49.4506787 C34.4705882,49.4986425 34.7529412,49.5705882 35.0823529,49.7144796 C35.3882353,49.858371 35.7176471,50.0502262 35.9529412,50.3859729 C36.2117647,50.6977376 36.3764706,51.1294118 36.3764706,51.6330317 L36.3764706,51.7769231 C36.3529412,52.0167421 36.1647059,52.1846154 35.9529412,52.1846154 L31.6235294,52.1846154 L31.6235294,52.1606335 C31.6235294,52.0167421 31.6235294,51.6090498 31.4588235,51.1054299 C31.2941176,50.6257919 30.9882353,50.0502262 30.3529412,49.6665158 C29.9529412,49.4266968 29.4117647,49.2588235 28.7764706,49.2588235 C28.5411765,49.2588235 28.3529412,49.4506787 28.3529412,49.6904977 C28.3529412,49.9303167 28.5411765,50.1221719 28.7764706,50.1221719 C29.2941176,50.1221719 29.6470588,50.2420814 29.9294118,50.3859729 C30.1882353,50.5538462 30.3764706,50.7457014 30.4941176,50.9855204 C30.6117647,51.2013575 30.6823529,51.4411765 30.7294118,51.6570136 C30.7294118,51.7289593 30.7764706,52.1126697 30.3294118,52.1366516 L20.2117647,52.1366516 C20.2117647,52.1126697 20.1882353,51.7289593 20.0470588,51.2253394 C19.8823529,50.7217195 19.5764706,50.09819 18.9647059,49.6665158 C18.6352941,49.4506787 18.2352941,49.2828054 17.7411765,49.2348416 C17.7176471,48.7552036 17.6470588,47.9158371 17.4352941,46.9085973 C17.1294118,45.4457014 16.4941176,43.6710407 15.2,42.4239819 C14.3294118,41.6085973 13.1294118,41.0570136 11.6235294,41.0570136 C11.3882353,41.0570136 11.2,41.2488688 11.2,41.4886878 C11.2,41.7285068 11.3882353,41.920362 11.6235294,41.920362 C12.9411765,41.920362 13.9058824,42.3760181 14.6352941,43.0475113 C15.3647059,43.7190045 15.8823529,44.6782805 16.2352941,45.6375566 C16.9176471,47.5561086 16.9411765,49.5466063 16.9411765,49.618552 L16.9411765,50.0502262 L17.3882353,50.0502262 C17.8823529,50.0502262 18.2352941,50.1701357 18.4941176,50.338009 C18.7529412,50.5058824 18.9411765,50.7217195 19.0823529,50.9855204 C19.2,51.1773756 19.2470588,51.3692308 19.3176471,51.5371041 C19.4117647,51.9927602 19.1058824,52.1126697 18.9176471,52.1126697 L6.44705882,52.1126697 C6.42352941,52.1126697 6.35294118,52.1126697 6.23529412,52.1126697 C5.71764706,52.1126697 4.37647059,51.9927602 3.15294118,50.9375566 C1.92941176,49.8823529 0.894117647,47.8918552 0.894117647,44.3425339 C0.894117647,44.1027149 0.941176471,43.599095 1.34117647,43.599095 C1.57647059,43.599095 1.71764706,44.078733 1.74117647,44.318552 L1.74117647,44.3425339 C1.76470588,44.5343891 1.90588235,45.4936652 2.44705882,46.3570136 C2.72941176,46.7886878 3.08235294,47.1963801 3.57647059,47.5081448 C3.88235294,47.7 4.25882353,47.8199095 4.65882353,47.9158371 C5.03529412,47.8678733 5.01176471,47.2683258 5.01176471,47.2683258 C5.01176471,47.1004525 5.01176471,46.9085973 5.01176471,46.6927602 C5.01176471,44.9660633 5.24705882,42.3040724 6.58823529,40.0497738 C8.61176471,36.4764706 12.9411765,28.3705882 13.7882353,26.7877828 C13.7882353,26.7158371 13.8117647,26.6678733 13.8352941,26.6438914 C13.8823529,26.5959276 13.9058824,26.5719457 13.9529412,26.5239819 C14.0705882,26.3800905 14.3294118,26.1642534 14.6352941,26.1642534 C14.6823529,26.1642534 14.7529412,26.1642534 14.8,26.1882353 L26.3294118,29.1140271 C26.7764706,29.2339367 26.3058824,29.4497738 26.3058824,29.4497738 C26.1882353,29.4977376 26.0941176,29.5696833 26,29.6656109 C25.5058824,30.1692308 25.5294118,30.9846154 26.0235294,31.4642534 C26.2588235,31.7040724 26.5882353,31.8239819 26.8941176,31.8239819 C27.2235294,31.8239819 27.5529412,31.7040724 27.7882353,31.4402715 C28.2823529,30.9366516 28.2588235,30.121267 27.7647059,29.6176471 C27.7647059,29.6176471 27.6,29.4497738 27.7647059,29.4497738 C27.7882353,29.4497738 27.8352941,29.4497738 27.9058824,29.4737557 L28.5411765,29.641629 L28.7058824,29.6895928 C28.9176471,29.7615385 29.2470588,29.9294118 29.2470588,30.361086 L31.2941176,36.3085973 Z M40.3294118,16.0918552 C39.9764706,16.619457 39.6705882,16.9072398 39.4823529,17.0511312 C38.7058824,17.5307692 37.9294118,17.6506787 37.3176471,17.6506787 C36.9882353,17.6506787 36.7294118,17.6027149 36.5411765,17.578733 C36.4470588,17.5547511 36.3764706,17.5547511 36.3294118,17.5307692 L36.2823529,17.5067873 C36.2352941,17.4828054 36.1882353,17.4828054 36.1411765,17.4828054 C35.9529412,17.4828054 35.7882353,17.6027149 35.7411765,17.7945701 C35.6705882,18.0343891 35.7882353,18.2742081 36.0235294,18.3461538 C36.0470588,18.3461538 36.5647059,18.5140271 37.3411765,18.5140271 C37.6470588,18.5140271 38.0235294,18.4660633 38.4,18.3941176 C38.4705882,18.3941176 38.7529412,18.4180995 38.5176471,18.7298643 C38.3529412,18.9457014 38.1882353,19.1615385 38.0235294,19.3773756 C37.0823529,20.5045249 35.7176471,21.9674208 34,23.118552 C33.8352941,23.2384615 33.6470588,23.3343891 33.4588235,23.4542986 C33.4352941,23.4542986 33.4117647,23.4782805 33.4117647,23.4782805 C33.3647059,23.5022624 33.3411765,23.5262443 33.3176471,23.5502262 C33.2235294,23.59819 33.1529412,23.6701357 33.0823529,23.7180995 C32.0235294,24.4855204 30.8941176,25.5167421 29.9764706,27.3873303 C29.9058824,27.5072398 29.8588235,27.6031674 29.8117647,27.7230769 C29.8117647,27.7470588 29.7882353,27.7470588 29.7882353,27.7470588 C29.5294118,28.2506787 29.1294118,28.3466063 28.8941176,28.3466063 C28.7529412,28.3466063 28.6588235,28.3226244 28.6588235,28.3226244 L15.3647059,24.9651584 C15.1058824,24.8692308 14.7764706,24.6054299 14.7529412,23.9819005 C14.7529412,23.9819005 14.7529412,23.9819005 14.7529412,23.9579186 C14.6823529,15.7321267 13.5529412,6.25927602 9.55294118,1.79864253 L9.57647059,1.79864253 C9.57647059,1.79864253 8.49411765,1.10316742 9.92941176,1.10316742 C10.6117647,1.12714932 12.2117647,1.75067873 13.6235294,3.06968326 L15.8117647,5.77963801 C15.9058824,5.87556561 16.0235294,5.94751131 16.1411765,5.94751131 C16.2352941,5.94751131 16.3294118,5.92352941 16.4235294,5.85158371 C16.6117647,5.68371041 16.6352941,5.4199095 16.4941176,5.2280543 L15.4117647,3.88506787 C15.7647059,3.04570136 16.4,1.75067873 17.3647059,0.935294118 C17.4352941,0.887330317 17.5294118,0.839366516 17.6470588,0.839366516 C17.7882353,0.839366516 17.9294118,0.935294118 17.9764706,1.27104072 C18.0470588,1.94253394 18.1882353,2.97375566 18.4470588,3.83710407 C18.7058824,4.46063348 19.2235294,4.67647059 19.8117647,4.67647059 C20.9176471,4.67647059 22.3058824,3.93303167 22.8235294,3.62126697 C23.4352941,3.23755656 23.9764706,2.39819005 24.4705882,1.77466063 C24.5176471,1.77466063 24.8,1.27104072 24.9176471,1.27104072 C24.9882353,1.27104072 25.0117647,1.48687783 24.8235294,2.23031674 C24.8235294,2.23031674 24.7294118,2.97375566 25.2235294,2.97375566 C25.3647059,2.97375566 25.5529412,2.90180995 25.8117647,2.75791855 C26.2117647,2.54208145 26.6117647,2.30226244 26.7764706,2.30226244 C26.8470588,2.30226244 26.8705882,2.35022624 26.8,2.47013575 C26.5176471,2.99773756 25.9294118,3.28552036 26.6823529,3.35746606 C28.8235294,3.52533937 30.8705882,4.29276018 32.5882353,5.5638009 L32.7764706,5.65972851 C33.2470588,5.94751131 33.6941176,6.06742081 34.0941176,6.06742081 C34.9647059,6.06742081 35.6235294,5.58778281 35.9058824,5.3239819 L40.0235294,1.55882353 C40.0235294,1.55882353 40.2823529,1.27104072 40.6588235,1.27104072 C40.9882353,1.27104072 41.4117647,1.53484163 41.7411765,2.59004525 C42.7529412,5.539819 44.3529412,9.44886878 40.3294118,16.0918552 Z" id="Shape"></path>
                    <path d="M29.8352941,7.41040724 C29.8117647,7.41040724 29.8117647,7.41040724 29.7882353,7.41040724 C29.7647059,7.41040724 29.5529412,7.43438914 29.2941176,7.50633484 C29.0117647,7.60226244 28.6352941,7.74615385 28.3294118,8.05791855 C28.0235294,8.36968326 27.8352941,8.89728507 27.9294118,9.49683258 C27.9764706,9.71266968 28.1411765,9.85656109 28.3529412,9.85656109 C28.3764706,9.85656109 28.4,9.85656109 28.4235294,9.85656109 C28.6588235,9.80859729 28.8235294,9.59276018 28.7764706,9.35294118 C28.7294118,8.96923077 28.8,8.82533937 28.9411765,8.65746606 C29.0823529,8.51357466 29.3176471,8.39366516 29.5058824,8.32171946 C29.6,8.29773756 29.6941176,8.27375566 29.7411765,8.27375566 L29.8117647,8.24977376 L29.8352941,8.24977376 C30.0705882,8.22579186 30.2588235,8.00995475 30.2352941,7.77013575 C30.2352941,7.57828054 30.0470588,7.41040724 29.8352941,7.41040724 Z" id="Shape"></path>
                </g>
                <g id="text_coloured" transform="translate(49.000000, 19.000000)">
                    <polygon id="Shape" points="0 0.594059406 16.1292365 0.594059406 16.1292365 5.34653465 5.67597765 5.34653465 5.67597765 10.0277228 14.0007449 10.0277228 14.0007449 14.7089109 5.65232775 14.7089109 5.65232775 23.239604 0 23.239604"></polygon>
                    <polygon id="Shape" points="19.5111732 23.2633663 19.5111732 0.594059406 35.9951583 0.594059406 35.9951583 5.2039604 25.1871508 5.2039604 25.1871508 9.52871287 33.8666667 9.52871287 33.8666667 14.1386139 25.1635009 14.1386139 25.1635009 18.5584158 35.9951583 18.5584158 35.9951583 23.1683168"></polygon>
                    <path d="M45.6679702,23.2633663 L39.9446927,23.2633663 L39.9446927,0.594059406 C39.9446927,0.594059406 49.2154562,0.594059406 49.0026071,0.594059406 C55.0096834,0.594059406 58.1314711,3.37425743 58.1314711,7.77029703 C58.1314711,10.8356436 56.5705773,13.0930693 53.5433892,14.3049505 L59.3376164,23.2633663 L52.9048417,23.2633663 L48.3877095,15.6594059 L45.7625698,15.8732673 L45.6679702,23.2633663 Z M48.4350093,11.5247525 C50.9182495,11.3108911 52.2426443,10.3128713 52.2426443,8.17425743 C52.2426443,6.17821782 50.8945996,5.18019802 48.009311,5.18019802 C47.8674115,5.18019802 45.5970205,5.18019802 45.5970205,5.18019802 L45.5970205,11.5722772 L48.4350093,11.5247525 Z" id="Shape"></path>
                    <path d="M72.9599628,23.7623762 C65.7467412,23.7623762 60.8748603,19.4376238 60.8748603,11.9762376 C60.8748603,4.51485149 65.6048417,0.0475247525 73.0309125,0.0475247525 C75.939851,0.0475247525 79.3217877,0.689108911 81.5212291,2.04356436 L79.747486,6.86732673 C77.6189944,5.65544554 75.443203,4.94257426 73.2437616,4.94257426 C69.2232775,4.94257426 66.5981378,7.65148515 66.5981378,11.8336634 C66.5981378,16.3722772 68.8685289,19.009901 73.1728119,19.009901 C74.4499069,19.009901 75.8689013,18.7247525 76.7675978,18.2970297 L76.7675978,14.9465347 L71.1862197,14.9465347 L71.1862197,10.4079208 L81.8759777,10.4079208 L81.8759777,21.6237624 C79.3927374,23.049505 76.2236499,23.7623762 72.9599628,23.7623762 Z" id="Shape"></path>
                    <path d="M95.8057728,23.7623762 C89.9405959,23.7623762 85.8964618,20.839604 85.8964618,14.4475248 L85.8964618,0.522772277 L91.6197393,0.522772277 L91.6197393,13.6633663 C91.6197393,17.0851485 92.967784,18.8435644 95.9949721,18.8435644 C98.6910615,18.8435644 100.086406,17.4178218 100.086406,13.8772277 C100.086406,13.9485149 100.086406,0.522772277 100.086406,0.522772277 L105.809683,0.522772277 C105.809683,0.522772277 105.809683,13.8059406 105.809683,13.9485149 C105.786034,20.5544554 101.883799,23.7623762 95.8057728,23.7623762 Z" id="Shape"></path>
                    <path d="M121.182123,16.9425743 C121.182123,15.4455446 119.550279,14.8752475 116.594041,14.0910891 C113.330354,13.1643564 109.380819,11.6673267 109.380819,7.12871287 C109.380819,2.94653465 112.431657,0.166336634 118.013035,0.166336634 C121.536872,0.166336634 124.303911,0.95049505 126.432402,2.16237624 L125.297207,6.91485149 C123.026816,5.7029703 120.283426,4.91881188 118.013035,4.91881188 C116.026443,4.91881188 115.033147,5.63168317 115.033147,6.84356436 C115.033147,8.34059406 117.090689,8.91089109 119.763128,9.6950495 C123.216015,10.6217822 126.834451,12.2613861 126.834451,16.5148515 C126.834451,20.7683168 123.499814,23.9049505 117.563687,23.9049505 C114.22905,23.9049505 110.989013,23.049505 108.860521,21.8376238 L109.924767,17.0851485 C112.195158,18.2970297 114.867598,19.2237624 117.634637,19.2237624 C119.763128,19.0574257 121.182123,18.2732673 121.182123,16.9425743 Z" id="Shape"></path>
                </g>
            </g>
        </g>
    </g>
</svg>